<svg width="99" height="21" viewBox="0 0 99 21" fill="none" xmlns="../../../../external.html?link=http://www.w3.org/2000/svg">
<path d="M30.171 3.83423C31.2849 3.83423 32.252 4.01799 33.0722 4.38552C33.9045 4.75304 34.5411 5.27983 34.9818 5.96588C35.4225 6.65193 35.6428 7.46661 35.6428 8.40992C35.6428 9.34101 35.4225 10.1557 34.9818 10.854C34.5411 11.54 33.9045 12.0668 33.0722 12.4343C32.252 12.8018 31.2849 12.9856 30.171 12.9856H27.2698V16.6976H24.8828V3.83423H30.171ZM30.0608 10.9642C31.1013 10.9642 31.8909 10.7437 32.4295 10.3027C32.9681 9.86165 33.2374 9.23075 33.2374 8.40992C33.2374 7.58908 32.9681 6.95819 32.4295 6.51716C31.8909 6.07614 31.1013 5.85562 30.0608 5.85562H27.2698V10.9642H30.0608Z" fill="white"/>
<path d="M41.7206 16.826C40.7291 16.826 39.8355 16.6116 39.0398 16.1828C38.2441 15.7541 37.6199 15.1599 37.1669 14.4003C36.7262 13.6286 36.5059 12.7587 36.5059 11.7909C36.5059 10.8231 36.7262 9.95942 37.1669 9.19983C37.6199 8.44031 38.2441 7.84614 39.0398 7.41732C39.8355 6.98858 40.7291 6.77417 41.7206 6.77417C42.7244 6.77417 43.6241 6.98858 44.4198 7.41732C45.2155 7.84614 45.8337 8.44031 46.2744 9.19983C46.7273 9.95942 46.9538 10.8231 46.9538 11.7909C46.9538 12.7587 46.7273 13.6286 46.2744 14.4003C45.8337 15.1599 45.2155 15.7541 44.4198 16.1828C43.6241 16.6116 42.7244 16.826 41.7206 16.826ZM41.7206 14.8598C42.5652 14.8598 43.263 14.5779 43.8139 14.0144C44.3647 13.4509 44.6402 12.7097 44.6402 11.7909C44.6402 10.8721 44.3647 10.1309 43.8139 9.56734C43.263 9.00382 42.5652 8.72207 41.7206 8.72207C40.876 8.72207 40.1782 9.00382 39.6274 9.56734C39.0888 10.1309 38.8195 10.8721 38.8195 11.7909C38.8195 12.7097 39.0888 13.4509 39.6274 14.0144C40.1782 14.5779 40.876 14.8598 41.7206 14.8598Z" fill="white"/>
<path d="M54.1226 6.77417C55.0774 6.77417 55.9281 6.98243 56.6748 7.39896C57.4338 7.81548 58.0275 8.40351 58.456 9.1631C58.8844 9.92262 59.0986 10.7985 59.0986 11.7909C59.0986 12.7832 58.8844 13.6653 58.456 14.4371C58.0275 15.1966 57.4338 15.7846 56.6748 16.2012C55.9281 16.6178 55.0774 16.826 54.1226 16.826C52.8005 16.826 51.7539 16.385 50.9827 15.5029V20.2624H48.6875V6.88439H50.8725V8.17077C51.252 7.70523 51.7172 7.35608 52.2681 7.12335C52.8311 6.89054 53.4493 6.77417 54.1226 6.77417ZM53.8655 14.8598C54.7101 14.8598 55.4018 14.5779 55.9404 14.0144C56.4912 13.4509 56.7667 12.7097 56.7667 11.7909C56.7667 10.8721 56.4912 10.1309 55.9404 9.56734C55.4018 9.00382 54.7101 8.72207 53.8655 8.72207C53.3146 8.72207 52.8189 8.85069 52.3782 9.10794C51.9375 9.35296 51.5887 9.70825 51.3316 10.1738C51.0745 10.6393 50.946 11.1783 50.946 11.7909C50.946 12.4034 51.0745 12.9425 51.3316 13.408C51.5887 13.8735 51.9375 14.2349 52.3782 14.4922C52.8189 14.7372 53.3146 14.8598 53.8655 14.8598Z" fill="white"/>
<path d="M66.2515 6.77417C67.2063 6.77417 68.057 6.98243 68.8038 7.39896C69.5624 7.81548 70.1562 8.40351 70.5846 9.1631C71.013 9.92262 71.2272 10.7985 71.2272 11.7909C71.2272 12.7832 71.013 13.6653 70.5846 14.4371C70.1562 15.1966 69.5624 15.7846 68.8038 16.2012C68.057 16.6178 67.2063 16.826 66.2515 16.826C64.9294 16.826 63.8828 16.385 63.1116 15.5029V20.2624H60.8164V6.88439H63.0014V8.17077C63.3809 7.70523 63.8461 7.35608 64.397 7.12335C64.96 6.89054 65.5782 6.77417 66.2515 6.77417ZM65.9944 14.8598C66.839 14.8598 67.5307 14.5779 68.0693 14.0144C68.6201 13.4509 68.8956 12.7097 68.8956 11.7909C68.8956 10.8721 68.6201 10.1309 68.0693 9.56734C67.5307 9.00382 66.839 8.72207 65.9944 8.72207C65.4436 8.72207 64.9478 8.85069 64.5071 9.10794C64.0664 9.35296 63.7176 9.70825 63.4605 10.1738C63.2034 10.6393 63.0749 11.1783 63.0749 11.7909C63.0749 12.4034 63.2034 12.9425 63.4605 13.408C63.7176 13.8735 64.0664 14.2349 64.5071 14.4922C64.9478 14.7372 65.4436 14.8598 65.9944 14.8598Z" fill="white"/>
<path d="M77.6032 14.8781C78.6679 14.8781 79.5554 14.5228 80.2657 13.8123L81.477 15.2273C81.0486 15.7541 80.4981 16.1522 79.8247 16.4217C79.1514 16.6912 78.3923 16.826 77.548 16.826C76.4707 16.826 75.5218 16.6116 74.702 16.1828C73.8815 15.7541 73.2451 15.1599 72.7923 14.4003C72.3513 13.6286 72.1309 12.7587 72.1309 11.7909C72.1309 10.8353 72.3451 9.97779 72.7735 9.2182C73.2144 8.44638 73.8145 7.84614 74.5729 7.41732C75.3446 6.98858 76.2133 6.77417 77.1803 6.77417C78.0986 6.77417 78.931 6.97629 79.6775 7.38059C80.4367 7.77261 81.0367 8.34227 81.477 9.08957C81.9179 9.82465 82.1384 10.6883 82.1384 11.6806L74.628 13.1507C74.8611 13.7143 75.2344 14.143 75.7486 14.4371C76.2628 14.7311 76.881 14.8781 77.6032 14.8781ZM77.1803 8.61181C76.3361 8.61181 75.6502 8.88742 75.1241 9.43871C74.6099 9.99001 74.3531 10.7312 74.3531 11.6623V11.6806L79.898 10.6148C79.7389 10.0145 79.4145 9.53061 78.9247 9.1631C78.4474 8.79559 77.8662 8.61181 77.1803 8.61181Z" fill="white"/>
<path d="M86.0759 8.31776C86.7367 7.2887 87.8998 6.77417 89.5646 6.77417V8.96095C89.3685 8.92422 89.1913 8.90585 89.0322 8.90585C88.1384 8.90585 87.4407 9.16925 86.939 9.69603C86.4373 10.2105 86.1862 10.9578 86.1862 11.9379V16.6974H83.8906V6.88439H86.0759V8.31776Z" fill="white"/>
<path d="M94.1162 16.826C93.3208 16.826 92.5435 16.7219 91.7844 16.5136C91.0253 16.3053 90.4196 16.042 89.9668 15.7234L90.848 13.9777C91.289 14.2717 91.8151 14.5106 92.427 14.6943C93.0515 14.8658 93.6634 14.9516 94.2634 14.9516C95.6345 14.9516 96.3196 14.5902 96.3196 13.8674C96.3196 13.5244 96.1424 13.2855 95.7873 13.1507C95.4447 13.0159 94.8879 12.8873 94.1162 12.7648C93.3082 12.6423 92.6475 12.5015 92.1332 12.3422C91.6316 12.1829 91.1906 11.9073 90.811 11.5153C90.444 11.111 90.2605 10.5536 90.2605 9.84302C90.2605 8.91193 90.6464 8.17077 91.4174 7.61948C92.2009 7.05596 93.2531 6.77417 94.5753 6.77417C95.2486 6.77417 95.9219 6.85381 96.5952 7.01309C97.2686 7.16008 97.8191 7.36223 98.2482 7.61948L97.3662 9.36525C96.5338 8.8752 95.5975 8.63017 94.5572 8.63017C93.8839 8.63017 93.3696 8.73429 93.0145 8.94258C92.6719 9.13859 92.5003 9.40198 92.5003 9.73276C92.5003 10.1003 92.6845 10.3637 93.0515 10.5229C93.431 10.6699 94.0122 10.8108 94.7958 10.9456C95.5793 11.0681 96.222 11.209 96.7236 11.3682C97.226 11.5275 97.6544 11.797 98.0088 12.1768C98.3766 12.5565 98.5601 13.0956 98.5601 13.7939C98.5601 14.7127 98.1623 15.4478 97.3662 15.9991C96.5708 16.5504 95.4872 16.826 94.1162 16.826Z" fill="white"/>
<path d="M9.93357 0.526611C7.33634 0.526611 4.84544 1.55918 3.00891 3.39716C1.17238 5.23515 0.140625 7.728 0.140625 10.3273C0.140625 12.9266 1.17238 15.4194 3.00891 17.2574C4.84544 19.0954 7.33634 20.128 9.93357 20.128V10.3273V0.526611Z" fill="white"/>
<path d="M17.7697 3.95654C16.0815 3.95654 14.4625 4.62771 13.2687 5.8224C12.075 7.01709 11.4043 8.63745 11.4043 10.3269C11.4043 12.0165 12.075 13.6369 13.2687 14.8316C14.4625 16.0263 16.0815 16.6975 17.7697 16.6975V10.3269V3.95654Z" fill="white"/>
</svg>
