<svg width="104" height="21" viewBox="0 0 104 21" fill="none" xmlns="../../../../external.html?link=http://www.w3.org/2000/svg">
<path d="M10.0749 20.4111C15.6025 20.4111 20.0835 15.9266 20.0835 10.3946C20.0835 4.86269 15.6025 0.378174 10.0749 0.378174C4.54738 0.378174 0.0664062 4.86269 0.0664062 10.3946C0.0664062 15.9266 4.54738 20.4111 10.0749 20.4111Z" fill="white"/>
<path d="M10.0743 13.468C11.7701 13.468 13.1448 12.0922 13.1448 10.3951C13.1448 8.69803 11.7701 7.32227 10.0743 7.32227C8.37858 7.32227 7.00391 8.69803 7.00391 10.3951C7.00391 12.0922 8.37858 13.468 10.0743 13.468Z" fill="white" stroke="#CACACA" stroke-width="3.98457"/>
<path d="M31.64 15.5586C35.1741 15.5586 37.3071 13.4396 37.3071 10.1831C37.3071 6.92666 35.1741 4.80762 31.64 4.80762C28.1837 4.80762 26.0352 6.92666 26.0352 10.1831C26.0352 13.4396 28.1837 15.5586 31.64 15.5586ZM31.64 13.315C29.3513 13.315 28.5106 12.5047 28.5106 10.1831C28.5106 7.86152 29.3513 7.05131 31.64 7.05131C33.9286 7.05131 34.816 7.86152 34.816 10.1831C34.816 12.5047 33.9286 13.315 31.64 13.315Z" fill="white"/>
<path d="M43.6674 15.5586C46.9213 15.5586 48.992 13.9382 48.992 11.2894V11.0557H46.3919V11.2894C46.3919 12.6605 45.6135 13.315 43.7141 13.315C41.4255 13.315 40.5692 12.5047 40.5692 10.1831C40.5692 7.86152 41.4255 7.05131 43.7141 7.05131C45.6135 7.05131 46.3919 7.70573 46.3919 9.07688V9.31059H48.992V9.07688C48.992 6.42807 46.9057 4.80762 43.6674 4.80762C40.2266 4.80762 38.0938 6.92666 38.0938 10.1831C38.0938 13.4396 40.2266 15.5586 43.6674 15.5586Z" fill="white"/>
<path d="M55.8096 15.4028V7.06684H59.6863V4.96338H49.5977V7.06684H53.4743V15.4028H55.8096Z" fill="white"/>
<path d="M65.8958 15.5586C69.4298 15.5586 71.5627 13.4396 71.5627 10.1831C71.5627 6.92666 69.4298 4.80762 65.8958 4.80762C62.4395 4.80762 60.291 6.92666 60.291 10.1831C60.291 13.4396 62.4395 15.5586 65.8958 15.5586ZM65.8958 13.315C63.6072 13.315 62.7664 12.5047 62.7664 10.1831C62.7664 7.86152 63.6072 7.05131 65.8958 7.05131C68.1844 7.05131 69.0718 7.86152 69.0718 10.1831C69.0718 12.5047 68.1844 13.315 65.8958 13.315Z" fill="white"/>
<path d="M74.9134 15.4028V12.5203H78.0274C80.4402 12.5203 81.9975 11.1335 81.9975 8.73404C81.9975 6.33452 80.4402 4.96338 78.0274 4.96338H72.5781V15.4028H74.9134ZM77.7783 7.06684C79.0705 7.06684 79.6775 7.45639 79.6775 8.73404C79.6775 10.0428 79.0705 10.4168 77.7783 10.4168H74.9134V7.06684H77.7783Z" fill="white"/>
<path d="M87.8701 15.5586C91.2799 15.5586 92.9921 13.8446 92.9921 11.04V4.96338H90.6568V10.8686C90.6568 12.6449 90.0031 13.2838 87.8701 13.2838C85.7532 13.2838 85.0834 12.6449 85.0834 10.8686V4.96338H82.748V11.04C82.748 13.8446 84.4763 15.5586 87.8701 15.5586Z" fill="white"/>
<path d="M98.9016 15.5586C102.218 15.5586 103.541 14.0317 103.541 12.3333C103.541 10.8999 102.7 9.76245 100.365 9.38852L97.4378 8.92102C96.5663 8.76523 96.2237 8.54709 96.2237 7.93944C96.2237 7.26944 96.7372 6.94224 98.4188 6.94224C100.49 6.94224 101.003 7.36294 101.003 8.36016V8.5783H103.355V8.4848C103.355 6.28783 101.859 4.80762 98.6525 4.80762C95.1492 4.80762 93.873 6.45922 93.873 8.03294C93.873 9.73131 94.9783 10.6662 96.8461 10.9622L99.7731 11.3829C100.848 11.5699 101.206 11.8036 101.206 12.4424C101.206 13.1435 100.769 13.424 98.9016 13.424C96.784 13.424 96.3011 13.0345 96.3011 12.0685V11.788H93.9658V11.8815C93.9658 14.3121 95.7409 15.5586 98.9016 15.5586Z" fill="white"/>
</svg>
