<svg width="88" height="19" viewBox="0 0 88 19" fill="none" xmlns="../../../../external.html?link=http://www.w3.org/2000/svg">
<path d="M9.28329 6.81079V7.92797C8.35308 7.11335 7.14377 6.60132 5.74844 6.60132C2.70193 6.60132 0.0507812 9.09166 0.0507812 12.3267C0.0507812 15.5619 2.70193 18.0755 5.74844 18.0755C7.14377 18.0755 8.35308 17.5634 9.28329 16.7256V17.866H11.7484V6.81079H9.28329ZM5.91123 15.748C4.07403 15.748 2.5624 14.212 2.5624 12.3267C2.5624 10.4648 4.07403 8.92875 5.91123 8.92875C7.79496 8.92875 9.28329 10.4648 9.28329 12.3267C9.28329 14.212 7.79496 15.748 5.91123 15.748Z" fill="white"/>
<path d="M22.0411 0.643066V7.92789C21.1109 7.11328 19.9016 6.60124 18.5063 6.60124C15.4598 6.60124 12.8086 9.09158 12.8086 12.3267C12.8086 15.5618 15.4598 18.0754 18.5063 18.0754C19.9016 18.0754 21.1109 17.5634 22.0411 16.7255V17.8659H24.5063V0.643066H22.0411ZM18.669 15.748C16.8319 15.748 15.3202 14.2119 15.3202 12.3267C15.3202 10.4648 16.8319 8.92867 18.669 8.92867C20.5528 8.92867 22.0411 10.4648 22.0411 12.3267C22.0411 14.2119 20.5528 15.748 18.669 15.748Z" fill="white"/>
<path d="M31.3997 18.1453C34.6788 18.1453 37.2602 15.5386 37.2602 12.3733C37.2602 9.18474 34.6788 6.60132 31.3997 6.60132C28.1439 6.60132 25.5625 9.18474 25.5625 12.3733C25.5625 15.5386 28.1439 18.1453 31.3997 18.1453ZM31.3997 15.7946C29.4927 15.7946 28.0741 14.212 28.0741 12.3733C28.0741 10.5347 29.4927 8.97526 31.3997 8.97526C33.3299 8.97526 34.7486 10.5347 34.7486 12.3733C34.7486 14.212 33.3299 15.7946 31.3997 15.7946Z" fill="white"/>
<path d="M44.3359 6.60124C42.9406 6.60124 41.7313 7.11328 40.8011 7.92789V0.643066H38.3359V17.8659H40.8011V16.7255C41.7313 17.5634 42.9406 18.0754 44.3359 18.0754C47.3824 18.0754 50.0336 15.5618 50.0336 12.3267C50.0336 9.09158 47.3824 6.60124 44.3359 6.60124ZM44.1732 15.748C42.2894 15.748 40.8011 14.2119 40.8011 12.3267C40.8011 10.4648 42.2894 8.92867 44.1732 8.92867C46.0104 8.92867 47.522 10.4648 47.522 12.3267C47.522 14.2119 46.0104 15.748 44.1732 15.748Z" fill="white"/>
<path d="M59.5567 6.81079V7.92797C58.6265 7.11335 57.4172 6.60132 56.0219 6.60132C52.9754 6.60132 50.3242 9.09166 50.3242 12.3267C50.3242 15.5619 52.9754 18.0755 56.0219 18.0755C57.4172 18.0755 58.6265 17.5634 59.5567 16.7256V17.866H62.0219V6.81079H59.5567ZM56.1847 15.748C54.3475 15.748 52.8358 14.212 52.8358 12.3267C52.8358 10.4648 54.3475 8.92875 56.1847 8.92875C58.0684 8.92875 59.5567 10.4648 59.5567 12.3267C59.5567 14.212 58.0684 15.748 56.1847 15.748Z" fill="white"/>
<path d="M68.9192 18.1453C71.0124 18.1453 72.8495 17.098 73.8961 15.4688L71.8029 14.212C71.198 15.1895 70.1283 15.7946 68.9192 15.7946C67.0355 15.7946 65.5937 14.2352 65.5937 12.3733C65.5937 10.5114 67.0355 8.97526 68.9192 8.97526C70.1053 8.97526 71.1052 9.51056 71.7331 10.4416L73.8263 9.20799C72.7797 7.62541 70.9893 6.60132 68.9192 6.60132C65.6867 6.60132 63.082 9.16149 63.082 12.3733C63.082 15.5619 65.6867 18.1453 68.9192 18.1453Z" fill="white"/>
<path d="M79.5638 18.1453C82.8431 18.1453 85.4247 15.5386 85.4247 12.3733C85.4247 9.18474 82.8431 6.60132 79.5638 6.60132C76.3082 6.60132 73.7266 9.18474 73.7266 12.3733C73.7266 15.5386 76.3082 18.1453 79.5638 18.1453ZM79.5638 15.7946C77.6569 15.7946 76.2384 14.212 76.2384 12.3733C76.2384 10.5347 77.6569 8.97526 79.5638 8.97526C81.4944 8.97526 82.9129 10.5347 82.9129 12.3733C82.9129 14.212 81.4944 15.7946 79.5638 15.7946Z" fill="white"/>
<path d="M26.6001 3.32725C26.4624 3.0888 26.5441 2.78389 26.7824 2.64622C27.0207 2.50855 27.3254 2.59025 27.4631 2.82871L28.7087 4.98749C28.8463 5.22595 28.7647 5.53086 28.5263 5.66853C28.2881 5.8062 27.9833 5.7245 27.8457 5.48604L26.6001 3.32725Z" fill="white"/>
<path d="M34.127 2.82871C34.2646 2.59025 34.5693 2.50855 34.8076 2.64622C35.0459 2.78389 35.1276 3.0888 34.99 3.32725L33.7443 5.48604C33.6067 5.72449 33.302 5.8062 33.0637 5.66853C32.8253 5.53086 32.7437 5.22595 32.8813 4.98749L34.127 2.82871Z" fill="white"/>
<path d="M30.3145 2.463C30.3145 2.18774 30.5374 1.9646 30.8126 1.9646C31.0876 1.9646 31.3107 2.18774 31.3107 2.463V4.95498C31.3107 5.23023 31.0876 5.45338 30.8126 5.45338C30.5374 5.45338 30.3145 5.23023 30.3145 4.95498V2.463Z" fill="white"/>
<path d="M86.9921 9.83853C87.2168 9.86339 87.422 9.70076 87.4261 9.47417C87.4422 8.57352 87.1875 7.68517 86.69 6.92707C86.1919 6.16901 85.4788 5.58253 84.6457 5.24051C84.4364 5.15445 84.2061 5.27789 84.1391 5.49454C84.0728 5.71119 84.1956 5.93867 84.4036 6.029C85.0538 6.312 85.612 6.7795 86.0049 7.37785C86.3977 7.97614 86.6049 8.6738 86.6063 9.38388C86.607 9.61054 86.7668 9.8136 86.9921 9.83853Z" fill="white"/>
</svg>
