<svg width="76" height="19" viewBox="0 0 76 19" fill="none" xmlns="../../../../external.html?link=http://www.w3.org/2000/svg">
<path d="M7.21619 18.1538C8.49595 18.1538 9.60053 17.8946 10.5298 17.3762C11.4744 16.8578 12.2057 16.1259 12.7237 15.1806C13.2417 14.2201 13.5007 13.0918 13.5007 11.7958V1.18359H9.95854V7.42737H9.88995C9.53955 6.93945 9.06726 6.55827 8.47307 6.28382C7.89416 6.00936 7.25428 5.87214 6.55345 5.87214C5.45652 5.87214 4.48146 6.12372 3.62829 6.62688C2.79035 7.13005 2.12761 7.83139 1.64008 8.73099C1.16779 9.61537 0.931641 10.6446 0.931641 11.8186C0.931641 13.0384 1.18302 14.1286 1.68579 15.0891C2.18855 16.0497 2.90461 16.8045 3.83396 17.3534C4.77855 17.887 5.90595 18.1538 7.21619 18.1538ZM7.21619 15.0891C6.40872 15.0891 5.76122 14.7994 5.27369 14.2201C4.78616 13.6254 4.5424 12.8935 4.5424 12.0244C4.5424 11.1706 4.78616 10.4539 5.27369 9.87457C5.76122 9.27991 6.40872 8.98258 7.21619 8.98258C8.03887 8.98258 8.68636 9.27991 9.15866 9.87457C9.64623 10.4539 9.88995 11.1706 9.88995 12.0244C9.88995 12.8935 9.64623 13.6254 9.15866 14.2201C8.68636 14.7994 8.03887 15.0891 7.21619 15.0891Z" fill="white"/>
<path d="M21.905 18.1542C20.7014 18.1542 19.6578 17.9255 18.7742 17.4681C17.9058 16.9954 17.2355 16.3627 16.7632 15.5698C16.2909 14.7617 16.0547 13.8698 16.0547 12.8939V6.14697H19.5969V12.8024C19.5969 13.4123 19.8102 13.9459 20.2368 14.4034C20.6786 14.8455 21.227 15.0666 21.8822 15.0666C22.5221 15.0666 23.0553 14.8455 23.4819 14.4034C23.9237 13.9459 24.1446 13.4123 24.1446 12.8024V6.14697H27.6868V12.8939C27.6868 13.8698 27.4583 14.7617 27.0013 15.5698C26.5442 16.3627 25.8815 16.9954 25.013 17.4681C24.1446 17.9255 23.1086 18.1542 21.905 18.1542Z" fill="white"/>
<path d="M30.3359 17.8794V1.18359H33.8782V17.8794H30.3359Z" fill="white"/>
<path d="M41.2034 18.1538C40.1521 18.1538 39.2304 17.8869 38.4382 17.3533C37.6612 16.8196 37.0518 16.103 36.61 15.2034C36.1682 14.2886 35.9473 13.2594 35.9473 12.1159C35.9473 10.9265 36.1986 9.86689 36.7014 8.93678C37.2194 7.99144 37.9507 7.24435 38.8953 6.69543C39.8551 6.14652 40.9901 5.87207 42.3003 5.87207C43.6106 5.87207 44.7228 6.14652 45.6369 6.69543C46.5662 7.24435 47.2747 7.98383 47.7622 8.91394C48.2649 9.84399 48.5163 10.8884 48.5163 12.0472V17.8793H45.0427V16.0039H44.9513C44.6161 16.6138 44.1514 17.1246 43.5573 17.5363C42.9631 17.9479 42.1785 18.1538 41.2034 18.1538ZM42.2546 15.0891C43.0621 15.0891 43.702 14.7994 44.1743 14.22C44.6618 13.6253 44.9056 12.8858 44.9056 12.0015C44.9056 11.1629 44.6618 10.4539 44.1743 9.8745C43.702 9.27984 43.0621 8.98252 42.2546 8.98252C41.4167 8.98252 40.7539 9.27984 40.2664 9.8745C39.7941 10.4539 39.558 11.1629 39.558 12.0015C39.558 12.8706 39.7941 13.6024 40.2664 14.1971C40.7539 14.7917 41.4167 15.0891 42.2546 15.0891Z" fill="white"/>
<path d="M51.1348 17.8794V1.18359H54.677V17.8794H51.1348Z" fill="white"/>
<path d="M57.2951 17.8795V6.14667H60.8602V17.8795H57.2951ZM59.0777 4.82015C58.514 4.82015 58.0264 4.61431 57.6151 4.20263C57.2037 3.79096 56.998 3.30304 56.998 2.73889C56.998 2.15949 57.2037 1.66396 57.6151 1.25228C58.0264 0.840604 58.514 0.634766 59.0777 0.634766C59.6566 0.634766 60.1441 0.840604 60.5403 1.25228C60.9516 1.66396 61.1573 2.15949 61.1573 2.73889C61.1573 3.30304 60.9516 3.79096 60.5403 4.20263C60.1441 4.61431 59.6566 4.82015 59.0777 4.82015Z" fill="white"/>
<path d="M62.5859 17.8795L66.151 12.7565C65.2216 12.2838 64.5132 11.6586 64.0256 10.881C63.5381 10.0882 63.2943 9.19619 63.2943 8.20511V6.14673H66.8366V8.02216C66.8366 8.57108 66.9889 9.05136 67.2936 9.463C67.6136 9.85941 68.0097 10.1263 68.482 10.2635L71.1786 6.14673H75.178L71.7954 11.064C72.8315 11.4909 73.6241 12.1237 74.1725 12.9623C74.7363 13.8009 75.0182 14.7462 75.0182 15.7983V17.8795H71.4528V15.9126C71.4528 15.3027 71.2469 14.7843 70.836 14.3574C70.4243 13.9153 69.937 13.6637 69.3733 13.6026L66.5623 17.8795H62.5859Z" fill="white"/>
</svg>
