<svg width="35" height="51" viewBox="0 0 35 51" fill="none" xmlns="../../../../external.html?link=http://www.w3.org/2000/svg">
<g clip-path="url(#clip0_1313_53)">
<path d="M17.4062 25.3044C17.4062 20.7686 21.1008 17.0728 25.6768 17.0728C30.2341 17.0728 33.9474 20.7499 33.9474 25.3044C33.9474 29.8403 30.2528 33.536 25.6768 33.536C21.1195 33.536 17.4062 29.8403 17.4062 25.3044Z" fill="#9E9E9E"/>
<path d="M0.882812 41.7487C0.882812 37.213 4.57738 33.5171 9.15341 33.5171H17.4239V41.7487C17.4239 46.2846 13.7294 49.9804 9.15341 49.9804C4.57738 49.9804 0.882812 46.3032 0.882812 41.7487Z" fill="#A0A0A0"/>
<path d="M17.4062 0.62853V17.0732H25.6768C30.2341 17.0732 33.9474 13.3959 33.9474 8.84152C33.9474 4.30571 30.2528 0.609863 25.6768 0.609863H17.4062V0.62853Z" fill="#8F8F8F"/>
<path d="M0.882812 8.86056C0.882812 13.3964 4.57738 17.0922 9.15341 17.0922H17.4239V0.628906H9.15341C4.57738 0.628906 0.882812 4.30608 0.882812 8.86056Z" fill="#6D6D6D"/>
<path d="M0.882812 25.3044C0.882812 29.8403 4.57738 33.536 9.15341 33.536H17.4239V17.0728H9.15341C4.57738 17.0728 0.882812 20.7686 0.882812 25.3044Z" fill="#757575"/>
</g>
<defs>
<clipPath id="clip0_1313_53">
<rect width="33.6207" height="50" fill="white" transform="translate(0.5 0.5)"/>
</clipPath>
</defs>
</svg>
