<svg width="46" height="51" viewBox="0 0 46 51" fill="none" xmlns="../../../../external.html?link=http://www.w3.org/2000/svg">
<g clip-path="url(#clip0_1313_37)">
<mask id="mask0_1313_37" style="mask-type:luminance" maskUnits="userSpaceOnUse" x="0" y="0" width="45" height="51">
<path d="M44.16 0.5H0.5V50.5H44.16V0.5Z" fill="white"/>
</mask>
<g mask="url(#mask0_1313_37)">
<path d="M4.15582 45.2624L0.5 0.583496L44.16 0.673281L40.2944 45.2624L22.4948 50.4165L4.15582 45.2624Z" fill="#A0A0A0"/>
<path d="M22.4961 46.1013V4.83838L40.4756 4.89824L37.2694 41.8159L22.4961 46.1013Z" fill="#949494"/>
<path d="M35.528 15.1468L36.0371 9.69287H8.37891L9.907 26.4139H28.9952L28.2467 33.5456L22.1335 35.1935L15.9307 33.3956L15.6011 29.1406H10.1169L10.8661 37.8306L22.1332 40.977L33.4901 37.8306L35.0182 20.8702H14.9716L14.4023 15.1468H35.528Z" fill="white"/>
</g>
</g>
<defs>
<clipPath id="clip0_1313_37">
<rect width="44.6809" height="50" fill="white" transform="translate(0.5 0.5)"/>
</clipPath>
</defs>
</svg>
