<svg width="53" height="51" viewBox="0 0 53 51" fill="none" xmlns="../../../../external.html?link=http://www.w3.org/2000/svg">
<g clip-path="url(#clip0_1313_59)">
<path d="M3.52198 34.9476C3.57143 35.0607 3.62731 35.165 3.6875 35.2693C3.71545 35.3303 3.75415 35.3933 3.78854 35.4498C3.84444 35.5629 3.90463 35.6716 3.96267 35.7803L4.30017 36.3541C4.36251 36.4607 4.4227 36.565 4.49364 36.6693C4.61187 36.8737 4.75161 37.0737 4.87414 37.2781C4.93003 37.3629 4.98163 37.4476 5.04397 37.5324C5.28044 37.9041 5.4954 38.2128 5.72543 38.5128C5.8888 38.7368 6.05217 38.9564 6.22845 39.1759C6.28649 39.2585 6.35098 39.3411 6.41117 39.4237L6.88626 40.0064C6.9443 40.0737 7.00234 40.152 7.06468 40.2216C7.27535 40.4781 7.49893 40.7258 7.72249 40.9781C7.72249 40.9824 7.72895 40.9868 7.73325 40.9933C8.01055 41.3454 8.30936 41.6585 8.63612 41.9368L8.64471 41.9454C8.81669 42.1237 8.98867 42.2998 9.17139 42.4737L9.38851 42.6846C9.62713 42.9106 9.86574 43.1346 10.1173 43.352C10.1216 43.352 10.1237 43.3563 10.128 43.3585L10.2505 43.4672C10.4698 43.6606 10.6912 43.852 10.9169 44.0302L11.1856 44.2585C11.3684 44.4063 11.5576 44.5454 11.7446 44.691L12.0369 44.9172C12.2369 45.0693 12.4497 45.2172 12.6539 45.365C12.7291 45.4193 12.8044 45.4737 12.8818 45.5237L12.9441 45.5737L13.5482 45.9737L13.8062 46.1476C14.1221 46.3519 14.436 46.5433 14.7499 46.7346C14.8401 46.7802 14.9304 46.8302 15.0143 46.8823C15.2465 47.0171 15.4872 47.1541 15.7215 47.2781C15.8505 47.3519 15.9838 47.415 16.117 47.4823C16.2783 47.5737 16.446 47.6629 16.618 47.7541C16.6652 47.7693 16.7039 47.7846 16.7427 47.8063L16.7513 47.7975C16.8221 47.8302 16.8888 47.865 16.9577 47.8998C17.2155 48.0302 17.4843 48.1541 17.7637 48.2758C17.8153 48.2975 17.8713 48.3193 17.9271 48.3498C18.2367 48.4867 18.5463 48.6171 18.8665 48.7433C18.9397 48.765 19.017 48.8019 19.0922 48.8302C19.3824 48.941 19.6813 49.0541 19.978 49.1606L20.0854 49.1998C20.4144 49.3127 20.7389 49.4215 21.0743 49.5237C21.1517 49.5454 21.2312 49.5737 21.3129 49.5954C21.6547 49.6998 21.9857 49.8237 22.3318 49.8889C44.4157 53.9388 50.8326 36.5281 50.8326 36.5281C45.4412 43.5933 35.8729 45.4563 26.8118 43.3824C26.4765 43.3041 26.1412 43.1954 25.8015 43.0954C25.322 42.9583 24.8468 42.8067 24.3763 42.641L24.5804 42.7041L24.4471 42.652C24.1548 42.552 23.8732 42.441 23.5872 42.3302C23.5173 42.3002 23.4463 42.2726 23.3745 42.2476L23.3509 42.241C23.0348 42.1129 22.7274 41.9824 22.4221 41.8454C22.3555 41.8237 22.2996 41.7933 22.233 41.7672C21.8714 41.6079 21.5131 41.4411 21.1581 41.2672L21.4548 41.3998C21.3773 41.3652 21.3014 41.3274 21.2269 41.2868C21.0249 41.191 20.8228 41.0824 20.625 40.9802C20.4744 40.9081 20.326 40.8311 20.18 40.7498L20.223 40.7716C19.9801 40.641 19.7371 40.4998 19.4921 40.3672C19.419 40.315 19.3352 40.2716 19.2514 40.2237C18.8871 40.0096 18.5272 39.7878 18.1722 39.5585L18.3077 39.6411C18.2166 39.5842 18.1277 39.5241 18.0411 39.4606L18.0539 39.4693C17.8229 39.3258 17.5964 39.1751 17.3747 39.0172C17.3016 38.9693 17.2349 38.9172 17.1597 38.865C16.9281 38.7052 16.7001 38.5399 16.4761 38.3693L16.5277 38.4064C16.4373 38.3324 16.3406 38.2629 16.2439 38.1911C16.0547 38.0411 15.8634 37.8976 15.6743 37.7411L15.4205 37.5368C15.1502 37.3192 14.885 37.0953 14.6252 36.865L14.6231 36.8629L13.8771 36.1781L13.6621 35.9737C13.4859 35.7933 13.3052 35.6216 13.1247 35.4433L12.9162 35.2259C12.6936 35.003 12.4764 34.7747 12.2648 34.5411L12.2519 34.5259L12.2153 34.4955C11.9878 34.2426 11.7634 33.9869 11.5426 33.7281C11.4845 33.6607 11.4307 33.5889 11.3705 33.5172L10.8826 32.9193C10.6626 32.64 10.4476 32.3566 10.2376 32.0693L10.1516 31.9476C5.12565 25.0434 3.30701 15.5151 7.3291 7.69775L3.77779 12.239C-0.790319 18.8455 -0.22495 27.4368 3.26831 34.452C3.34785 34.6237 3.43599 34.7846 3.52198 34.9476Z" fill="#808080"/>
<path d="M18.9067 25.4312L18.8829 25.396L18.8633 25.3696L18.9067 25.4312Z" fill="black"/>
<path d="M21.3131 28.2829L21.5065 28.4786C21.7516 28.7177 22.0031 28.9503 22.2589 29.1829L22.2911 29.2111C22.5491 29.4416 22.8393 29.6829 23.1382 29.9177L23.1833 29.9525C23.2564 30.0025 23.3187 30.0611 23.3897 30.1111C23.6906 30.3459 23.9937 30.5698 24.3098 30.7938L24.342 30.8134C24.4752 30.9111 24.6171 31.0003 24.7676 31.0959C24.8277 31.1351 24.8966 31.1872 24.961 31.2263C25.1889 31.3742 25.4125 31.5111 25.6425 31.6524C25.679 31.6676 25.7114 31.6872 25.7457 31.7024C25.9392 31.822 26.1499 31.9372 26.3519 32.0416C26.4228 32.0851 26.4917 32.1176 26.5648 32.159C26.7088 32.2307 26.8506 32.3068 26.9883 32.3807L27.057 32.4111C27.3472 32.5546 27.6439 32.6894 27.9341 32.822C28.0072 32.8503 28.0696 32.8742 28.1319 32.9046C28.3705 33.009 28.6134 33.109 28.852 33.2003C28.9596 33.2372 29.0605 33.2807 29.1616 33.3134C29.3808 33.3959 29.6108 33.472 29.828 33.5481L30.1289 33.6459C30.4428 33.7438 30.7609 33.872 31.0941 33.9242C48.1477 36.7633 52.0945 23.5525 52.0945 23.5525C48.5411 28.6981 41.6642 31.1503 34.3359 29.2351C33.9701 29.1418 33.6073 29.0367 33.2482 28.9198L33.3707 28.9546C33.2675 28.9263 33.1772 28.8938 33.0784 28.8634C32.8548 28.7851 32.6248 28.709 32.4076 28.6286L32.0981 28.5111C31.8573 28.4134 31.6122 28.3221 31.378 28.2177C31.3049 28.1851 31.2382 28.1634 31.1823 28.1307C30.8814 27.9938 30.5783 27.859 30.2837 27.7155L29.8409 27.4829L29.5851 27.3525C29.3873 27.2481 29.2046 27.1394 29.0154 27.0286C28.9672 27.0056 28.9205 26.9795 28.8757 26.9503L28.8821 26.9525C28.6542 26.809 28.4177 26.6698 28.1985 26.5242C28.1254 26.4829 28.0588 26.4329 27.99 26.3894L27.5428 26.0959C27.2333 25.8786 26.9302 25.6459 26.6227 25.4198C26.554 25.3569 26.4873 25.3046 26.4207 25.2481C23.1983 22.6981 20.6574 19.2134 19.4514 15.2677C18.1809 11.1656 18.4604 6.5656 20.6552 2.83301L17.9573 6.67648C14.6447 11.4612 14.8317 17.8569 17.4114 22.9177C17.8821 23.8525 18.3593 24.6417 18.886 25.3938C19.3761 26.1025 19.9178 26.9329 20.5714 27.5025C20.8036 27.7698 21.053 28.0242 21.3131 28.2829Z" fill="#808080"/>
<path d="M5.73849 38.5266L5.7299 38.5135L5.71484 38.494L5.73849 38.5266ZM14.6769 36.9092L14.6984 36.9244L14.7028 36.9309L14.6769 36.9092Z" fill="black"/>
<path d="M29.8775 2.51521C27.9234 5.39998 27.7364 8.98257 29.0821 12.163C30.5117 15.5413 33.4331 18.1934 36.8382 19.4499C36.978 19.5043 37.1134 19.5499 37.2574 19.6021L37.4466 19.6607C37.6443 19.7238 37.8442 19.7978 38.0485 19.8434C47.4664 21.6716 50.0159 14.9782 50.7017 13.9934C48.4596 17.2326 44.6997 18.0107 40.0865 16.8826C39.6853 16.7836 39.2904 16.6602 38.9041 16.513L38.975 16.5369C38.4942 16.3686 38.0234 16.1727 37.5648 15.9499L37.6465 15.9869C36.7651 15.5521 36.0084 15.0826 35.3055 14.5434C31.1823 11.3913 28.6329 5.38911 31.3242 0.5L29.8775 2.51521Z" fill="#808080"/>
</g>
<defs>
<clipPath id="clip0_1313_59">
<rect width="52.1277" height="50" fill="white" transform="translate(0.5 0.5)"/>
</clipPath>
</defs>
</svg>
