<svg width="51" height="51" viewBox="0 0 51 51" fill="none" xmlns="../../../../external.html?link=http://www.w3.org/2000/svg">
<g clip-path="url(#clip0_1313_65)">
<mask id="mask0_1313_65" style="mask-type:luminance" maskUnits="userSpaceOnUse" x="0" y="0" width="51" height="51">
<path d="M50.5 0.5H0.5V50.5H50.5V0.5Z" fill="white"/>
</mask>
<g mask="url(#mask0_1313_65)">
<path d="M0.5 0.5H50.5V50.5H0.5V0.5Z" fill="#808080"/>
<path d="M46.4068 38.575C46.0407 36.2936 44.5532 34.3781 40.1472 32.591C38.6168 31.8876 36.9105 31.3839 36.402 30.2241C36.2214 29.5492 36.1976 29.169 36.3117 28.7603C36.6397 27.4342 38.2223 27.0207 39.4771 27.4009C40.2851 27.6719 41.0503 28.2945 41.5113 29.2878C43.6691 27.8906 43.6644 27.9 45.1711 26.94C44.6197 26.0844 44.325 25.69 43.9638 25.324C42.6663 23.8744 40.8982 23.1281 38.0702 23.1852C37.5807 23.247 37.0865 23.3135 36.5969 23.3754C35.1853 23.7318 33.8402 24.4733 33.0513 25.4666C30.6844 28.152 31.3592 32.8525 34.2395 34.787C37.0769 36.9162 41.2451 37.401 41.7774 39.3924C42.2955 41.8307 39.9857 42.6195 37.69 42.3392C35.998 41.9875 35.057 41.1272 34.0398 39.5636C32.1672 40.6472 32.1672 40.6472 30.2423 41.7546C30.6986 42.7527 31.1786 43.2042 31.9438 44.0692C35.5655 47.7433 44.6291 47.5626 46.2547 42.0018C46.3212 41.8116 46.7585 40.5378 46.4068 38.575ZM27.6805 23.4799H23.0037C23.0037 27.5197 22.9848 31.5312 22.9848 35.5711C22.9848 38.1424 23.1179 40.4998 22.6996 41.2222C22.0152 42.6433 20.2423 42.4675 19.4344 42.1918C18.6121 41.7878 18.1938 41.2127 17.709 40.4C17.5759 40.1671 17.4762 39.9866 17.4429 39.9723C16.1739 40.747 14.9096 41.5263 13.6406 42.3011C14.2728 43.5987 15.2042 44.7251 16.3972 45.457C18.1796 46.5263 20.575 46.8543 23.0798 46.2792C24.71 45.8039 26.1168 44.8202 26.8535 43.323C27.9182 41.3601 27.69 38.9837 27.6805 36.3553C27.7042 32.0683 27.6805 27.7812 27.6805 23.4799Z" fill="white"/>
</g>
</g>
<defs>
<clipPath id="clip0_1313_65">
<rect width="50" height="50" fill="white" transform="translate(0.5 0.5)"/>
</clipPath>
</defs>
</svg>
