<svg width="85" height="51" viewBox="0 0 85 51" fill="none" xmlns="../../../../external.html?link=http://www.w3.org/2000/svg">
<g clip-path="url(#clip0_1313_33)">
<path fill-rule="evenodd" clip-rule="evenodd" d="M42.5868 0.659668C31.5605 0.659668 24.6691 6.17716 21.9125 17.2121C26.0474 11.6947 30.8714 9.6256 36.3845 11.005C39.5301 11.7913 41.7782 14.0764 44.2668 16.6037C48.3205 20.7219 53.0127 25.4884 63.261 25.4884C74.2873 25.4884 81.1788 19.9709 83.9353 8.93591C79.8005 14.4534 74.9765 16.5224 69.4634 15.1431C66.3178 14.3569 64.0696 12.0717 61.5811 9.54437C57.5274 5.42617 52.8351 0.659668 42.5868 0.659668ZM21.9125 25.4884C10.8863 25.4884 3.99485 31.0059 1.23828 42.0408C5.37313 36.5234 10.1971 34.4543 15.7103 35.8337C18.8558 36.6215 21.1039 38.9051 23.5925 41.4324C27.6462 45.5506 32.3385 50.3171 42.5868 50.3171C53.6131 50.3171 60.5045 44.7997 63.261 33.7647C59.1262 39.2821 54.3022 41.3512 48.7891 39.9718C45.6436 39.1856 43.3954 36.9004 40.9068 34.3731C36.8532 30.2549 32.1608 25.4884 21.9125 25.4884Z" fill="#A0A0A0"/>
</g>
<defs>
<clipPath id="clip0_1313_33">
<rect width="84.0426" height="50" fill="white" transform="translate(0.5 0.5)"/>
</clipPath>
</defs>
</svg>
