<svg width="72" height="51" viewBox="0 0 72 51" fill="none" xmlns="../../../../external.html?link=http://www.w3.org/2000/svg">
<g clip-path="url(#clip0_1313_35)">
<path d="M52.6678 15.1415C52.6678 15.1415 47.0408 33.4825 46.5824 34.9965C46.4156 33.4392 42.2892 0.520508 42.2892 0.520508C32.7025 0.520508 27.5757 7.61468 24.8664 15.0982C24.8664 15.0982 18.0307 33.4825 17.4471 35.0398C17.4054 33.6123 16.4051 15.3144 16.4051 15.3144C15.8216 6.14394 7.73537 0.563764 1.19141 0.563764L9.11085 50.4393C19.156 50.3961 24.5746 43.3452 27.4089 35.8616C27.4089 35.8616 33.4527 19.6402 33.7028 18.9049C33.7445 19.5969 38.0377 50.4393 38.0377 50.4393C48.1246 50.4393 53.5431 43.821 56.4608 36.597L70.5908 0.563764C60.6289 0.563764 55.3771 7.61469 52.6678 15.1415Z" fill="#A0A0A0"/>
</g>
<defs>
<clipPath id="clip0_1313_35">
<rect width="70.8333" height="50" fill="white" transform="translate(0.5 0.5)"/>
</clipPath>
</defs>
</svg>
